<?xml version="1.0" encoding="UTF-8"?>
<svg xmlns="http://www.w3.org/2000/svg" id="a" width="982.42" height="982.42" viewBox="0 0 982.42 982.42" version="1.2" baseProfile="tiny-ps">
  <path d="m0,982.42V0h982.42v982.42H0ZM270.02,455.73c.8,1.29,1.3,2.13,1.84,2.95,1.3,1.96,2.7,3.86,3.9,5.88,4.36,7.35,8.68,14.72,12.96,22.11,2.54,4.39,5.2,8.74,7.4,13.31,2.81,5.82,2.74,5.24.36,11.19-.69,1.72-1.49,3.4-2.28,5.08-2.48,5.27-5,10.52-7.45,15.8-9.5,20.44-18.96,40.9-28.49,61.33-5.76,12.35-11.59,24.66-17.43,36.97-1.59,3.36-3.34,6.64-5.01,9.96-1.05,2.1-2.68,3.38-4.89,4.27-7.12,2.87-14.19,5.86-21.24,8.89-8.78,3.77-17,8.61-25.23,13.43-8.78,5.14-17.72,9.9-27.42,13.13-8.1,2.7-16.26,3-24.53,1.13-1.69-.38-3.33-.96-4.99-1.45-3.1-.91-6.26-1.56-9.51-1.26-3.08.29-6.14.72-8.83,2.49-3.04,2-3.11,2.6-.39,4.81.1.08.19.16.29.23,5.19,3.56,9.18,8.28,12.79,13.36,4.38,6.18,8.05,12.78,11.35,19.59.48,1,.88,2.05,1.26,3.09.59,1.6.4,2.12-1.05,3.09-2.88,1.93-5.8,3.81-8.66,5.77-6.25,4.28-11.08,9.86-14.94,16.32-.25.42-.47.87-.65,1.33-.32.79.11,1.51,1,1.57,1.23.08,2.48.1,3.71.1,15.12,0,30.24.03,45.36-.02,3.98-.01,7.93.32,11.81,1.13,5.03,1.05,9.61,3.2,13.75,6.28,5.33,3.95,9.2,8.97,11.21,15.33.56,1.76.85,3.61,1.26,5.42,1.1,4.83,2.02,9.7,3.9,14.32,3.2,7.86,8.19,14.41,14.43,20.03,9.55,8.6,20.61,13.46,33.66,13.38,15.12-.09,30.24-.06,45.36-.1.99,0,1.98-.06,2.97-.12,2.72-.16,5.44-.42,8.16-.46,3.24-.05,6.42-.47,9.53-1.37,7.12-2.06,13.44-5.72,19.29-10.14,6.16-4.65,11.16-10.54,16.31-16.23.28-.31.36-.81.66-1.52-1.42-.05-2.51-.11-3.59-.11-2.85,0-5.68-.14-8.49-.75-6.68-1.45-11.27-5.37-13.98-11.6-1.37-3.15-1.62-6.44-1.54-9.82.11-4.21,1.21-8.09,3.6-11.54,5.29-7.62,12.55-11.74,21.88-12.03,1.73-.05,3.47-.09,5.2-.09,91.22,0,182.44,0,273.67.02,1.49,0,2.98.02,4.46.1,9.16.51,16.26,4.74,21.56,12.09,1,1.39,1.8,2.99,2.36,4.61,1.49,4.3,1.68,8.76.81,13.21-.66,3.34-2.21,6.26-4.63,8.74-3.22,3.29-7.05,5.35-11.54,6.32-3.06.66-6.15.66-9.24.71-.7.01-1.53-.23-1.94.66.05.25.05.52.17.72.25.43.52.84.84,1.21,4.85,5.64,9.81,11.15,15.75,15.72,9.52,7.31,20.11,11.59,32.21,11.65,17.48.08,34.95.13,52.43.02,3.68-.02,7.39-.62,11.03-1.26,5.56-.98,10.56-3.45,15.33-6.41,15-9.32,23.78-22.77,26.64-40.15.22-1.35.4-2.7.67-4.03.81-4.07,2.4-7.76,5.1-11,2.33-2.79,5.01-5.14,8-7.17,5.26-3.58,11.2-5.24,17.45-5.64,4.44-.28,8.92-.11,13.38-.11,13.51,0,27.02,0,40.53,0,1.36,0,2.73,0,4.09-.07,1.11-.06,1.68-.81,1.19-1.73-1.1-2.07-2.15-4.21-3.57-6.05-4.04-5.27-9.08-9.44-14.75-12.88-2.22-1.35-4.36-2.84-6.49-4.32-1.58-1.09-1.78-1.71-1.17-3.45.37-1.05.83-2.07,1.32-3.07,2.88-5.92,6.33-11.5,10.01-16.95,4.33-6.43,9.39-12.14,15.9-16.48.48-.32.85-.82,1.24-1.21-1.8-2.57-2.95-3.54-5.52-4.36-4.07-1.3-8.2-1.89-12.42-.69-2.38.68-4.77,1.31-7.16,1.96-1.55.42-3.09.97-4.67,1.2-7.59,1.09-15.1.7-22.34-1.98-4.4-1.63-8.77-3.41-13-5.43-10.05-4.81-20.07-9.72-29.48-15.74-.31-.2-.64-.39-.97-.55-6.98-3.46-13.96-6.94-20.96-10.37-2.11-1.03-4.25-2.02-6.42-2.9-2.58-1.04-4.2-2.88-5.32-5.38-2.74-6.1-5.57-12.16-8.39-18.23-7.2-15.5-14.39-31.01-21.62-46.5-2.46-5.28-5.12-10.46-7.52-15.76-5.72-12.64-11.35-25.32-16.97-38-1.91-4.3-3.63-8.68-5.53-12.98-1.05-2.38-.73-4.41.6-6.66,3.48-5.85,6.79-11.81,10.04-17.8,4.73-8.71,9.67-17.3,14.93-25.7.56-.89,1.74-1.88.88-2.91-.47-.56-1.81-.52-2.76-.51-6.32.05-12.63.21-18.95.26-8.18.06-16.36.04-24.54.05-1.11,0-2.23-.05-3.34-.08-1.34-.04-2.41-.61-3.06-1.78-1.09-1.94-2.24-3.86-3.16-5.89-5.09-11.16-10.12-22.34-15.16-33.52-6.66-14.79-13.34-29.58-19.96-44.4-4.7-10.52-9.31-21.07-13.98-31.6-5.68-12.79-11.42-25.56-17.06-38.37-5.9-13.37-11.72-26.78-17.56-40.18-3.12-7.15-6.21-14.32-9.26-21.5-1.7-4-2.97-8.14-3.74-12.42-1.81-9.93-.27-19.28,5.19-27.79,4.42-6.88,10.26-12.41,17.43-16.39,4.76-2.64,9.7-4.95,14.54-7.44.73-.38,1.39-.91,2.24-1.47-.52-.65-.85-1.16-1.27-1.59-2.43-2.5-5.24-4.55-8.15-6.44-7.37-4.79-15.36-7.91-24.15-8.88-6.3-.7-12.64-.59-18.94-.26-4.83.25-9.65.32-14.48.31-2.46,0-4.96-.25-7.39-.69-8.08-1.47-15.21-5.07-21.61-10.16-6.12-4.87-10.7-10.97-14.24-17.89-.43-.84-.96-1.62-1.66-2.78-.84,1.42-1.48,2.45-2.07,3.5-4.88,8.68-11.31,15.91-19.71,21.37-5.18,3.36-10.75,5.72-16.89,6.27-4.67.42-9.4.41-14.1.37-6.07-.05-12.13-.36-18.2-.47-4.99-.09-9.83,1.05-14.63,2.24-7.33,1.82-13.71,5.66-19.9,9.79-1.73,1.16-3.19,2.73-4.72,4.17-.85.81-.76,1.51.27,2.06,3.61,1.92,7.21,3.85,10.87,5.66,7.08,3.51,13.2,8.3,18.62,13.99,5.97,6.27,9.78,13.7,11.12,22.26,1.76,11.21.87,22.27-2.89,32.98-2.18,6.18-4.55,12.32-7.24,18.3-8.77,19.42-17.68,38.77-26.62,58.1-8.94,19.34-18.03,38.61-26.97,57.95-5.98,12.93-11.79,25.93-17.72,38.88-4.39,9.57-8.81,19.12-13.31,28.64-2.77,5.85-2.99,4.77-7.55,4.78-14.25.03-28.51.03-42.76.04-1.24,0-2.49-.05-3.71.09-.68.08-1.32.49-2.4.93Z" fill="#fff"/>
  <path d="m270.02,455.73c1.08-.43,1.72-.85,2.4-.93,1.23-.14,2.47-.09,3.71-.09,14.25-.01,28.51,0,42.76-.04,4.56-.01,4.78,1.07,7.55-4.78,4.5-9.52,8.93-19.07,13.31-28.64,5.94-12.95,11.75-25.95,17.72-38.88,8.94-19.34,18.03-38.61,26.97-57.95,8.94-19.34,17.86-38.69,26.62-58.1,2.7-5.97,5.07-12.11,7.24-18.3,3.77-10.71,4.65-21.77,2.89-32.98-1.34-8.56-5.15-15.99-11.12-22.26-5.42-5.69-11.53-10.48-18.62-13.99-3.66-1.81-7.26-3.74-10.87-5.66-1.03-.55-1.12-1.25-.27-2.06,1.53-1.44,2.99-3.02,4.72-4.17,6.19-4.13,12.57-7.97,19.9-9.79,4.8-1.19,9.63-2.33,14.63-2.24,6.07.11,12.13.42,18.2.47,4.7.04,9.43.05,14.1-.37,6.14-.55,11.71-2.91,16.89-6.27,8.4-5.46,14.82-12.69,19.71-21.37.59-1.06,1.23-2.09,2.07-3.5.7,1.16,1.23,1.94,1.66,2.78,3.55,6.92,8.13,13.02,14.24,17.89,6.4,5.09,13.52,8.69,21.61,10.16,2.43.44,4.92.68,7.39.69,4.82.01,9.65-.06,14.48-.31,6.29-.33,12.63-.43,18.94.26,8.78.97,16.78,4.08,24.15,8.88,2.91,1.89,5.72,3.93,8.15,6.44.42.43.76.94,1.27,1.59-.84.56-1.5,1.09-2.24,1.47-4.84,2.49-9.78,4.8-14.54,7.44-7.17,3.97-13.01,9.5-17.43,16.39-5.46,8.51-7,17.86-5.19,27.79.78,4.29,2.05,8.43,3.74,12.42,3.05,7.18,6.15,14.34,9.26,21.5,5.84,13.4,11.66,26.8,17.56,40.18,5.65,12.81,11.39,25.57,17.06,38.37,4.67,10.53,9.28,21.09,13.98,31.6,6.62,14.81,13.3,29.6,19.96,44.4,5.04,11.18,10.07,22.36,15.16,33.52.92,2.02,2.07,3.94,3.16,5.89.66,1.17,1.72,1.74,3.06,1.78,1.11.03,2.23.08,3.34.08,8.18,0,16.36.01,24.54-.05,6.32-.04,12.63-.2,18.95-.26.95,0,2.29-.04,2.76.51.86,1.03-.32,2.02-.88,2.91-5.26,8.4-10.2,16.99-14.93,25.7-3.25,5.98-6.56,11.94-10.04,17.8-1.33,2.25-1.65,4.28-.6,6.66,1.89,4.31,3.62,8.68,5.53,12.98,5.62,12.68,11.26,25.36,16.97,38,2.4,5.3,5.06,10.49,7.52,15.76,7.23,15.49,14.42,30.99,21.62,46.5,2.82,6.07,5.65,12.13,8.39,18.23,1.12,2.5,2.75,4.34,5.32,5.38,2.18.88,4.32,1.86,6.42,2.9,7,3.43,13.98,6.91,20.96,10.37.33.16.66.35.97.55,9.41,6.03,19.42,10.93,29.48,15.74,4.23,2.03,8.6,3.8,13,5.43,7.24,2.68,14.74,3.07,22.34,1.98,1.58-.23,3.12-.78,4.67-1.2,2.39-.64,4.78-1.28,7.16-1.96,4.22-1.2,8.35-.61,12.42.69,2.57.82,3.72,1.79,5.52,4.36-.39.39-.76.89-1.24,1.21-6.5,4.33-11.57,10.05-15.9,16.48-3.67,5.45-7.13,11.03-10.01,16.95-.49,1-.95,2.02-1.32,3.07-.61,1.74-.41,2.36,1.17,3.45,2.14,1.48,4.27,2.97,6.49,4.32,5.67,3.44,10.71,7.61,14.75,12.88,1.41,1.85,2.46,3.99,3.57,6.05.49.92-.08,1.67-1.19,1.73-1.36.07-2.73.07-4.09.07-13.51,0-27.02-.01-40.53,0-4.46,0-8.94-.17-13.38.11-6.25.4-12.19,2.06-17.45,5.64-2.98,2.03-5.66,4.38-8,7.17-2.7,3.24-4.28,6.93-5.1,11-.27,1.34-.45,2.69-.67,4.03-2.86,17.38-11.64,30.83-26.64,40.15-4.76,2.96-9.77,5.43-15.33,6.41-3.64.64-7.35,1.24-11.03,1.26-17.47.11-34.95.06-52.43-.02-12.1-.06-22.68-4.33-32.21-11.65-5.95-4.57-10.9-10.08-15.75-15.72-.32-.37-.6-.79-.84-1.21-.12-.2-.12-.47-.17-.72.41-.89,1.24-.65,1.94-.66,3.1-.05,6.18-.05,9.24-.71,4.5-.97,8.32-3.03,11.54-6.32,2.42-2.47,3.98-5.4,4.63-8.74.87-4.45.68-8.9-.81-13.21-.56-1.62-1.36-3.22-2.36-4.61-5.3-7.35-12.41-11.58-21.56-12.09-1.48-.08-2.97-.1-4.46-.1-91.22-.01-182.44-.02-273.67-.02-1.73,0-3.47.03-5.2.09-9.34.29-16.59,4.41-21.88,12.03-2.39,3.45-3.49,7.33-3.6,11.54-.08,3.38.16,6.67,1.54,9.82,2.71,6.23,7.3,10.15,13.98,11.6,2.81.61,5.64.75,8.49.75,1.08,0,2.17.06,3.59.11-.3.71-.38,1.2-.66,1.52-5.16,5.69-10.15,11.58-16.31,16.23-5.85,4.42-12.17,8.08-19.29,10.14-3.11.9-6.28,1.32-9.53,1.37-2.72.04-5.44.3-8.16.46-.99.06-1.98.12-2.97.12-15.12.03-30.24,0-45.36.1-13.05.08-24.11-4.78-33.66-13.38-6.24-5.62-11.23-12.18-14.43-20.03-1.88-4.63-2.8-9.49-3.9-14.32-.41-1.81-.7-3.66-1.26-5.42-2.01-6.36-5.88-11.38-11.21-15.33-4.14-3.07-8.73-5.23-13.75-6.28-3.87-.81-7.82-1.14-11.81-1.13-15.12.05-30.24.03-45.36.02-1.24,0-2.48-.02-3.71-.1-.89-.06-1.32-.78-1-1.57.19-.46.4-.91.65-1.33,3.86-6.46,8.69-12.05,14.94-16.32,2.86-1.96,5.77-3.84,8.66-5.77,1.45-.97,1.64-1.49,1.05-3.09-.38-1.04-.78-2.09-1.26-3.09-3.3-6.81-6.97-13.41-11.35-19.59-3.6-5.07-7.59-9.8-12.79-13.36-.1-.07-.2-.15-.29-.23-2.72-2.21-2.65-2.81.39-4.81,2.69-1.77,5.75-2.2,8.83-2.49,3.25-.3,6.4.34,9.51,1.26,1.66.49,3.31,1.07,4.99,1.45,8.28,1.88,16.43,1.57,24.53-1.13,9.7-3.23,18.64-8,27.42-13.13,8.23-4.82,16.45-9.66,25.23-13.43,7.05-3.03,14.12-6.03,21.24-8.89,2.2-.89,3.84-2.17,4.89-4.27,1.66-3.33,3.41-6.61,5.01-9.96,5.84-12.31,11.67-24.62,17.43-36.97,9.53-20.43,18.98-40.89,28.49-61.33,2.45-5.28,4.98-10.53,7.45-15.8.79-1.68,1.59-3.36,2.28-5.08,2.38-5.94,2.45-5.37-.36-11.19-2.21-4.56-4.86-8.91-7.4-13.31-4.28-7.4-8.6-14.77-12.96-22.11-1.2-2.02-2.6-3.91-3.9-5.88-.54-.82-1.04-1.66-1.84-2.95Zm402.24,232.91c-1.63,0-3.11,0-4.59,0-30.49.12-60.98.23-91.46.36-2.35,0-4.71.08-7.06.23-1.57.1-1.98.49-1.99,2.09-.04,5.45-.02,10.91.05,16.36.02,1.74.49,2.18,2.26,2.24,2.1.07,4.21-.07,6.31-.07,13.26.02,26.52.04,39.78.1,7.31.04,14.62.19,21.94.23,4.39.02,8.61.89,12.73,2.36,5.51,1.98,10.65,4.66,15.49,7.97,8.53,5.84,14.04,13.85,17.06,23.63,1.91,6.21,1.37,12.51.19,18.77-.67,3.54-1.61,7.03-3.41,10.18-3.34,5.88-7.53,11.11-12.97,15.14-7.42,5.5-15.54,9.67-24.55,11.98-.45.12-1.01.12-1.03,1.02,2.89,3.07,6.54,5.13,10.81,5.68,10.8,1.4,20.66-.97,29.28-7.89,6.57-5.27,11.82-11.64,15.94-18.94,3.32-5.9,5.26-12.23,6.09-18.98.92-7.45.79-14.83-.6-22.19-.38-2,.08-3.66,1.3-5.2.42-.54,1.27-.47,1.49.19.86,2.58,1.83,5.14,2.45,7.78,2.18,9.18,1.96,18.44.62,27.7-1.36,9.37-5.3,17.46-12.27,23.99-.32.3-.47.78-.78,1.3,1.51.82,2.94,1.08,4.41,1.22,6.19.57,12.39.57,18.55-.25,6.45-.85,12.62-2.74,18.25-6,7.99-4.63,14.03-11,16.56-20.14,1.22-4.41,2.47-8.84,3.31-13.34,1.76-9.32,6.15-17.18,12.46-24.11,4.31-4.73,9.41-8.38,14.99-11.46,7.89-4.37,16.4-6.98,25.14-8.85,7.14-1.53,14.35-2.78,21.52-4.17,5.86-1.13,11.59-2.71,16.95-5.36,7.12-3.52,13.18-8.31,17.54-15.06.66-1.02,1.95-2.13,1.28-3.28-.85-1.46-2.6-1.01-4.07-.82-.25.03-.49.07-.73.14-2.85.8-5.78,1.4-8.54,2.45-7.99,3.03-16.3,4.1-24.75,4.35-3.84.11-7.68.1-11.53.02-6.69-.14-13.37-.39-20.06-.55-1.98-.05-3.97.09-5.95.05-13.88-.24-27.75-.52-41.63-.77-4.83-.09-9.67-.17-14.5-.13-1.85.01-2.94-.62-3.68-2.36-1.99-4.67-4.12-9.28-6.22-13.9-6.47-14.2-12.94-28.39-19.43-42.58-7.83-17.11-15.72-34.2-23.54-51.31-4.94-10.81-9.81-21.65-14.68-32.49-6.14-13.67-12.16-27.39-18.38-41.01-4.42-9.69-9.12-19.25-13.67-28.88-4.87-10.3-9.74-20.6-14.54-30.93-5.69-12.24-11.36-24.49-16.93-36.78-6.34-13.98-12.54-28.03-18.85-42.03-4.48-9.93-9.14-19.78-13.56-29.74-6.38-14.37-12.62-28.8-18.9-43.21-5.79-13.28-11.61-26.54-17.32-39.85-2.64-6.14-5.14-12.34-7.1-18.75-2.37-7.75-2.9-15.64-1.52-23.53,2.02-11.57,7.82-21.04,17.19-28.22,9.97-7.64,21.34-11.38,33.83-11.78,4.58-.14,9.17,0,13.76-.01.69,0,1.54.19,1.87-.92-1.45-1.83-3.47-3.06-5.42-4.34-5.46-3.58-11.42-6.13-17.89-6.82-10.52-1.12-20.78.28-30.52,4.61-3.33,1.48-6.79,2.25-10.37,2.72-11.73,1.51-23.18,4.07-33.71,9.73-.97.52-1.8.56-2.82.25-3.79-1.15-7.6-2.21-11.4-3.35-8.43-2.53-16.97-4.57-25.63-6.11-5.86-1.04-11.62-2.29-17.15-4.64-2.7-1.15-5.68-1.73-8.58-2.33-7.38-1.54-14.76-1.55-22.07.54-6.14,1.76-11.79,4.48-16.67,8.67-.48.41-.9.86-.42,1.81,1.45.1,3.04.28,4.64.31,2.23.04,4.46-.12,6.69-.04,2.84.09,5.72.1,8.51.54,20.57,3.21,34.87,14.46,42.74,33.76.93,2.28,1.73,4.69,2.08,7.12.71,4.9,1.3,9.84,1.52,14.78.34,7.8.22,15.61-.74,23.38-.7,5.65-1.41,11.3-2.64,16.87-2.95,13.32-6.9,26.36-11.27,39.27-1.63,4.81-3.52,9.52-5.27,14.29-.61,1.67-1.59,3.04-2.95,4.2-5.08,4.36-10.09,8.79-15.18,13.13-10.69,9.14-19.11,20.06-25.6,32.5-1.77,3.4-3.46,6.86-5.04,10.36-3.43,7.59-6.06,15.44-7.57,23.65-.83,4.53-.91,9.11-1.22,13.68-.4,5.83-.44,11.62.17,17.44,1.02,9.76,3.89,18.95,8.79,27.4,5.43,9.36,12.03,17.85,19.84,25.42,8.92,8.65,18.47,16.52,28.67,23.6,15.78,10.95,31.61,21.83,47.39,32.77,9.48,6.57,18.66,13.54,26.96,21.58,7.27,7.05,13.29,15.06,17.29,24.42,5.77,13.51,6.12,27.26.67,40.89-4.89,12.22-11.96,23.06-21.82,31.96-12.43,11.21-26.97,17.32-43.69,18.14-5.47.27-10.89-.32-16.25-1.38-10.09-1.98-19.44-5.68-27.75-11.88-6.87-5.12-12.55-11.21-16.2-19.05-3.24-6.94-4.39-14.13-2.71-21.71,1.28-5.77,3.74-11,6.98-15.9.54-.81,1.28-1.5,1.94-2.22.47-.52,1.44-1.1,1.37-1.51-.2-1.1-1.35-.81-2.14-.8-2.11.03-4.21.13-6.18,1.02-4.31,1.94-8.43,4.18-12.11,7.18-2.73,2.22-4.84,4.91-6.4,8.09-3.59,7.33-3.82,15.04-2.64,22.89,1.23,8.16,4.89,15.27,9.78,21.83,6.09,8.18,13.91,14.4,22.42,19.84,3.14,2.01,6.46,3.68,9.94,5.03,15.37,5.94,31.24,8.63,47.72,7.36,9.21-.71,18.13-2.65,26.64-6.28,12.18-5.2,22.49-13.06,31.41-22.7,10.09-10.91,17.88-23.36,23.71-37.07,4.68-10.99,6.91-22.44,7.44-34.3.35-7.97-.41-15.82-2.21-23.6-2.48-10.74-6.63-20.72-12.78-29.88-5.15-7.68-11.57-14.21-18.42-20.33-6.39-5.7-13.21-10.87-20.27-15.69-13.1-8.93-26.31-17.7-39.52-26.48-10.32-6.86-20.73-13.57-30.56-21.14-8.19-6.3-15.71-13.21-21.62-21.81-7.89-11.46-11.43-24.03-10.47-37.9.09-1.36.25-2.71.37-4.07.94-10.86,4.51-20.76,10.71-29.72,5.19-7.51,11.54-13.92,18.8-19.41,5.83-4.41,11.74-8.71,17.59-13.1,19.37-14.56,31.12-33.94,36.3-57.47.22-1,.51-1.99.77-2.98.28.69.28,1.31.2,1.91-.44,3.38-.09,6.67.96,9.91.57,1.77.98,3.6,1.67,5.31,2.83,7.01,5.66,14.02,8.63,20.96,4.92,11.51,9.96,22.96,14.92,34.45,4.18,9.67,8.23,19.39,12.5,29.02,3.72,8.38,7.61,16.69,11.54,24.97,7.03,14.77,13.6,29.76,21.68,44.01.27.48.32,1.09.52,1.82-.74.05-1.23.16-1.7.11-2.96-.3-5.91-.63-8.86-.95-6.15-.66-12.3-1.4-18.46-1.97-8.89-.82-17.82-.84-26.74-.88-4.09-.02-8.18-.14-12.27-.15-2.23-.01-2.54.28-2.58,2.61-.07,3.97-.05,7.93-.08,11.9-.03,4.08-.39,4.36,4.23,4.46,5.33.11,10.66.11,15.99.27,6.81.21,13.64.42,20.35,1.7,15.59,2.98,30.44,7.92,43.78,16.79,1.5.99,2.68,2.17,3.45,3.78.75,1.57,1.54,3.11,2.27,4.68,3.97,8.54,7.96,17.07,11.88,25.63,13.52,29.52,27.12,58.99,40.17,88.72,5.88,13.39,11.95,26.69,18.12,39.95,5.38,11.57,10.97,23.05,16.57,34.51,1.24,2.53,2.91,4.85,4.68,7.76Zm-390.22-.07c1.5-2.93,2.73-5.2,3.83-7.53,5.09-10.75,10.1-21.53,15.23-32.26,8.45-17.66,17.05-35.24,25.43-52.93,13.05-27.54,25.95-55.15,38.93-82.72,3.27-6.95,6.59-13.88,9.88-20.82,1.88-3.97,2.26-7.89.69-12.21-2.25-6.16-4.26-12.43-5.29-18.95-.66-4.16-1.18-8.34-1.8-12.51-.12-.81-.37-1.59-.63-2.68-1.48,1.03-1.81,2.4-2.36,3.57-5.6,11.88-11.16,23.77-16.74,35.66-8.58,18.27-17.18,36.54-25.74,54.82-4.83,10.32-9.54,20.69-14.4,31-7.81,16.58-15.69,33.13-23.56,49.68-4.62,9.73-9.24,19.47-13.92,29.17-5.75,11.94-11.56,23.85-17.35,35.78-1.45,2.98-.61,2.88-4.68,3.02-.5.02-.99.03-1.49.03-21.19.23-42.38.45-63.57.68-2.23.02-4.47-.07-6.69.12-7.92.7-15.85.46-23.78.51-3.62.02-7.17-.47-10.7-1.09-5.37-.94-10.61-2.44-15.72-4.36-1.51-.57-3-1.2-4.56-1.56-1.3-.3-2.68-.3-4.02-.29-.77,0-1.35.96-1.01,1.64.71,1.44,1.39,2.92,2.34,4.2,3.28,4.39,7.1,8.27,11.61,11.43,5.14,3.61,10.86,5.96,16.93,7.41,6.62,1.58,13.29,3.02,19.95,4.4,10.75,2.23,21.02,5.77,30.7,10.96,13.83,7.42,23.05,18.49,26.81,33.88.71,2.89,1.35,5.79,2.1,8.67,2.31,8.84,3.08,10.32,9.16,17.09,6.05,6.74,13.33,11.4,22.36,13.08,5.88,1.09,11.8,1.43,17.76,1.16,2.63-.12,5.15-.73,7.6-1.62.43-.15.78-.5,1.41-.91-1.44-.94-2.79-1.58-3.83-2.54-6.32-5.85-10.97-12.74-12.86-21.28-1.82-8.24-1.45-16.51-.3-24.77.95-6.81,3.43-13.16,6.46-19.3,2.87-5.81,7.04-10.44,12.46-13.96.25-.17.63-.14,1.42-.29-.59.7-.85,1.09-1.19,1.4-2.49,2.29-4.41,5.01-6.19,7.85-5.84,9.31-7.9,19.7-8.42,30.45-.33,6.89,1.09,13.53,3.51,20,2.02,5.4,4.99,10.24,8.38,14.84,5.69,7.69,12.54,13.99,21.43,17.89,11.42,5.01,22.17,3.77,32.37-3.21.18-.12.25-.41.46-.78-.55-.25-1.06-.62-1.62-.71-3.57-.6-6.89-2-10.23-3.28-7.12-2.74-13.66-6.43-19.14-11.83-9.46-9.31-14.75-20.34-14.17-33.86.5-11.76,5.53-21.17,14.71-28.4,5-3.94,10.6-6.88,16.48-9.25,4.51-1.82,9.2-2.93,14.11-2.91,4.09.01,8.18-.09,12.27-.08,11.03,0,22.06.05,33.09.05,1.48,0,2.97-.09,4.45-.22.95-.09,1.6-.63,1.67-1.66.04-.62.08-1.24.09-1.85.05-5.08.09-10.16.11-15.24,0-.59-.15-1.17-.27-1.98-7.46-.27-14.75.03-22.04.03-7.31,0-14.62,0-21.94-.03-7.19-.02-14.38-.05-21.56-.11-7.31-.07-14.62-.19-21.93-.28-7.3-.08-14.61-.14-22.52-.21Z"/>
  <path d="m672.26,688.64c-1.77-2.9-3.44-5.22-4.68-7.76-5.6-11.47-11.19-22.94-16.57-34.51-6.16-13.26-12.24-26.56-18.12-39.95-13.05-29.73-26.65-59.2-40.17-88.72-3.92-8.56-7.91-17.09-11.88-25.63-.73-1.57-1.52-3.12-2.27-4.68-.77-1.61-1.96-2.79-3.45-3.78-13.34-8.87-28.2-13.81-43.78-16.79-6.71-1.28-13.54-1.49-20.35-1.7-5.33-.16-10.66-.16-15.99-.27-4.62-.1-4.26-.38-4.23-4.46.03-3.97,0-7.93.08-11.9.04-2.32.35-2.62,2.58-2.61,4.09.02,8.18.13,12.27.15,8.92.05,17.85.06,26.74.88,6.16.57,12.31,1.31,18.46,1.97,2.95.32,5.91.65,8.86.95.47.05.96-.06,1.7-.11-.2-.73-.25-1.34-.52-1.82-8.08-14.25-14.65-29.24-21.68-44.01-3.94-8.28-7.82-16.59-11.54-24.97-4.27-9.62-8.32-19.35-12.5-29.02-4.96-11.49-10-22.94-14.92-34.45-2.97-6.95-5.8-13.96-8.63-20.96-.69-1.72-1.1-3.55-1.67-5.31-1.04-3.24-1.4-6.53-.96-9.91.08-.61.09-1.22-.2-1.91-.26.99-.55,1.98-.77,2.98-5.17,23.53-16.92,42.91-36.3,57.47-5.84,4.39-11.76,8.69-17.59,13.1-7.27,5.49-13.61,11.9-18.8,19.41-6.19,8.96-9.77,18.87-10.71,29.72-.12,1.36-.28,2.71-.37,4.07-.96,13.86,2.58,26.43,10.47,37.9,5.91,8.59,13.43,15.5,21.62,21.81,9.83,7.56,20.24,14.28,30.56,21.14,13.21,8.78,26.41,17.55,39.52,26.48,7.06,4.81,13.88,9.99,20.27,15.69,6.85,6.12,13.27,12.65,18.42,20.33,6.14,9.16,10.3,19.14,12.78,29.88,1.8,7.79,2.57,15.64,2.21,23.6-.53,11.85-2.76,23.3-7.44,34.3-5.84,13.71-13.62,26.16-23.71,37.07-8.92,9.64-19.23,17.51-31.41,22.7-8.52,3.63-17.43,5.58-26.64,6.28-16.48,1.26-32.35-1.42-47.72-7.36-3.48-1.35-6.8-3.02-9.94-5.03-8.51-5.44-16.33-11.66-22.42-19.84-4.88-6.56-8.55-13.67-9.78-21.83-1.18-7.84-.95-15.56,2.64-22.89,1.56-3.18,3.67-5.87,6.4-8.09,3.68-2.99,7.8-5.24,12.11-7.18,1.98-.89,4.08-.99,6.18-1.02.8-.01,1.95-.3,2.14.8.07.41-.89.99-1.37,1.51-.66.73-1.41,1.41-1.94,2.22-3.24,4.89-5.7,10.12-6.98,15.9-1.68,7.58-.53,14.77,2.71,21.71,3.65,7.83,9.33,13.93,16.2,19.05,8.31,6.2,17.66,9.9,27.75,11.88,5.36,1.05,10.78,1.64,16.25,1.38,16.72-.82,31.26-6.93,43.69-18.14,9.87-8.9,16.94-19.74,21.82-31.96,5.45-13.63,5.1-27.38-.67-40.89-4-9.37-10.01-17.37-17.29-24.42-8.3-8.05-17.48-15.01-26.96-21.58-15.79-10.94-31.62-21.82-47.39-32.77-10.2-7.08-19.75-14.95-28.67-23.6-7.8-7.57-14.41-16.06-19.84-25.42-4.9-8.45-7.77-17.64-8.79-27.4-.61-5.82-.58-11.61-.17-17.44.32-4.57.39-9.15,1.22-13.68,1.51-8.21,4.13-16.07,7.57-23.65,1.58-3.5,3.26-6.96,5.04-10.36,6.48-12.44,14.91-23.36,25.6-32.5,5.08-4.35,10.1-8.78,15.18-13.13,1.35-1.16,2.34-2.53,2.95-4.2,1.75-4.77,3.65-9.48,5.27-14.29,4.37-12.91,8.32-25.95,11.27-39.27,1.23-5.57,1.95-11.22,2.64-16.87.96-7.78,1.09-15.58.74-23.38-.22-4.94-.81-9.88-1.52-14.78-.35-2.42-1.15-4.84-2.08-7.12-7.87-19.3-22.17-30.55-42.74-33.76-2.8-.44-5.67-.44-8.51-.54-2.23-.07-4.46.08-6.69.04-1.59-.03-3.19-.21-4.64-.31-.49-.95-.06-1.39.42-1.81,4.88-4.19,10.53-6.91,16.67-8.67,7.3-2.09,14.68-2.09,22.07-.54,2.9.61,5.87,1.18,8.58,2.33,5.53,2.35,11.3,3.6,17.15,4.64,8.66,1.54,17.2,3.58,25.63,6.11,3.79,1.14,7.61,2.2,11.4,3.35,1.01.31,1.85.27,2.82-.25,10.53-5.66,21.98-8.21,33.71-9.73,3.58-.46,7.04-1.23,10.37-2.72,9.73-4.33,20-5.73,30.52-4.61,6.47.69,12.43,3.25,17.89,6.82,1.95,1.28,3.97,2.5,5.42,4.34-.33,1.11-1.19.92-1.87.92-4.59.02-9.17-.13-13.76.01-12.49.39-23.85,4.14-33.83,11.78-9.37,7.18-15.17,16.65-17.19,28.22-1.38,7.89-.85,15.78,1.52,23.53,1.96,6.41,4.47,12.61,7.1,18.75,5.72,13.31,11.53,26.58,17.32,39.85,6.28,14.41,12.53,28.84,18.9,43.21,4.42,9.96,9.08,19.81,13.56,29.74,6.31,14,12.51,28.05,18.85,42.03,5.57,12.29,11.24,24.54,16.93,36.78,4.8,10.33,9.67,20.63,14.54,30.93,4.55,9.63,9.24,19.19,13.67,28.88,6.23,13.63,12.25,27.35,18.38,41.01,4.87,10.84,9.74,21.68,14.68,32.49,7.82,17.12,15.7,34.2,23.54,51.31,6.5,14.18,12.96,28.38,19.43,42.58,2.1,4.62,4.24,9.23,6.22,13.9.74,1.75,1.83,2.38,3.68,2.36,4.83-.03,9.67.05,14.5.13,13.88.24,27.76.52,41.63.77,1.98.03,3.97-.1,5.95-.05,6.69.16,13.37.41,20.06.55,3.84.08,7.69.09,11.53-.02,8.45-.25,16.76-1.32,24.75-4.35,2.76-1.05,5.69-1.65,8.54-2.45.24-.07.48-.11.73-.14,1.47-.19,3.22-.64,4.07.82.66,1.15-.62,2.26-1.28,3.28-4.36,6.75-10.42,11.54-17.54,15.06-5.37,2.65-11.09,4.23-16.95,5.36-7.18,1.38-14.38,2.64-21.52,4.17-8.75,1.87-17.25,4.49-25.14,8.85-5.57,3.08-10.68,6.73-14.99,11.46-6.31,6.93-10.7,14.8-12.46,24.11-.85,4.5-2.09,8.92-3.31,13.34-2.53,9.14-8.57,15.51-16.56,20.14-5.63,3.26-11.8,5.15-18.25,6-6.17.81-12.36.81-18.55.25-1.47-.13-2.9-.4-4.41-1.22.31-.52.46-1,.78-1.3,6.97-6.53,10.91-14.62,12.27-23.99,1.34-9.26,1.56-18.52-.62-27.7-.63-2.64-1.59-5.2-2.45-7.78-.22-.66-1.07-.73-1.49-.19-1.22,1.54-1.68,3.2-1.3,5.2,1.39,7.36,1.52,14.74.6,22.19-.83,6.75-2.77,13.08-6.09,18.98-4.12,7.31-9.36,13.67-15.94,18.94-8.63,6.91-18.48,9.29-29.28,7.89-4.27-.55-7.92-2.61-10.81-5.68.02-.9.58-.9,1.03-1.02,9-2.31,17.13-6.48,24.55-11.98,5.44-4.03,9.63-9.26,12.97-15.14,1.79-3.16,2.74-6.64,3.41-10.18,1.18-6.26,1.72-12.56-.19-18.77-3.01-9.78-8.53-17.79-17.06-23.63-4.83-3.31-9.97-6-15.49-7.97-4.12-1.48-8.33-2.34-12.73-2.36-7.31-.04-14.62-.2-21.94-.23-13.26-.06-26.52-.08-39.78-.1-2.11,0-4.21.14-6.31.07-1.77-.06-2.23-.5-2.26-2.24-.07-5.45-.09-10.9-.05-16.36.01-1.6.42-1.99,1.99-2.09,2.35-.15,4.7-.22,7.06-.23,30.49-.13,60.98-.24,91.46-.36,1.48,0,2.96,0,4.59,0Zm-146.34-515.75c-1.22-.56-1.92.18-2.51.66-2.4,1.94-4.74,3.97-7.05,6.03-1.48,1.32-2.85,2.75-4.31,4.1-2.33,2.14-5.03,3.58-8.19,4.11-.49.08-.98.17-1.46.28-2.03.48-2.27.8-2.01,2.76.08.61.17,1.23.28,1.84.41,2.19,1.08,4.37,1.18,6.57.16,3.71-.02,7.43-.1,11.14-.06,2.97-.39,5.96-.21,8.91.32,5.19-.02,10.37.58,15.58.51,4.43,1.03,8.85,1.97,13.2,2.31,10.69,6.04,20.93,10.24,30.99,5.01,12,10.25,23.9,15.53,35.78,5.73,12.9,11.64,25.72,17.45,38.59,8,17.72,15.9,35.48,24,53.15,8.11,17.67,16.25,35.33,24.68,52.85,10.89,22.66,21.48,45.45,31.83,68.36,7.7,17.04,15.3,34.12,23.03,51.14,7.17,15.79,14.46,31.51,21.66,47.28,8.18,17.91,16.29,35.85,24.5,53.75,1.34,2.92,2.96,5.71,4.55,8.51.4.71,1.14,1.26,1.79,1.8.12.1.81-.17.85-.34.14-.7.31-1.49.13-2.15-.47-1.66-1.03-3.31-1.72-4.9-3.07-7.04-6.12-14.09-9.31-21.07-8.08-17.68-16.27-35.32-24.35-53.01-6.79-14.87-13.49-29.78-20.24-44.67-8.48-18.72-16.9-37.48-25.48-56.16-8.22-17.9-16.58-35.73-24.92-53.57-9.6-20.53-19.35-41-28.84-61.58-7.47-16.19-14.69-32.5-21.93-48.8-10.06-22.63-20.13-45.27-30.01-67.98-4.35-10-7.95-20.3-10.3-30.98-.74-3.38-1.31-6.81-1.78-10.24-.46-3.31-.56-6.66-1.05-9.96-1.35-9.1.31-17.78,3.65-26.18,3.47-8.75,8.72-16.37,15.33-23.05.85-.86,1.64-1.77,2.52-2.73Zm241.4,534.57c-5.03.96-10.02,1.69-15.08,1.97-.37.02-.74.09-1.11.1-2.85.09-5.31.96-7.1,3.36-.66.88-1.56,1.59-2.34,2.38-2.04,2.04-4.34,3.64-7.07,4.66-2.08.78-4.13,1.65-6.18,2.51-1.61.68-2.03,1.54-1.59,3.24.21.84.55,1.64.81,2.46.75,2.36,1.56,4.69,2.21,7.07,1.54,5.62,2.26,11.39,2.91,17.17.08.68-.11,1.52,1.04,1.9,1.26-2.92,1.9-6.06,2.98-9.05,1.14-3.16,2.53-6.18,4.25-9.05,1.65-2.76,3.23-5.57,5.1-8.18,1.94-2.7,4.08-5.28,6.35-7.73,2.18-2.36,4.54-4.57,6.97-6.66,2.52-2.16,5.22-4.1,7.85-6.14ZM456.09,173.07c.32,1.02.33,1.17.4,1.25.26.26.54.51.82.75,5.66,4.95,10,10.86,13.22,17.68,2.96,6.27,5.39,12.73,7.78,19.23.21.58.02,1.49.84,1.63.77-4.8,1.45-9.56,2.32-14.29.65-3.54,1.9-6.92,3.55-10.11,1.61-3.12,3.22-6.24,5.74-9.35-3.01.81-5.21,1.97-7.23,3.71-3.9,3.38-9.79,3.58-13.91-.1-1.84-1.65-3.74-3.24-5.7-4.74-2.34-1.79-4.78-3.46-7.83-5.65Zm14.5,128.84c1.87-2.18,4.14-7.41,5.97-13.73,2.67-9.21,3.86-17.04,3.18-21.85-.34.98-.65,1.52-.7,2.07-.38,4.46-1.68,8.73-2.57,13.08-.55,2.67-1.08,5.38-2.6,7.68-2.17,3.29-2.78,7.1-3.83,10.76-.19.68-.25,1.49.55,1.97Z" fill="#fff"/>
  <path d="m282.04,688.56c7.91.07,15.21.13,22.52.21,7.31.08,14.62.21,21.93.28,7.19.07,14.38.09,21.56.11,7.31.02,14.62.03,21.94.03,7.29,0,14.58-.31,22.04-.03.11.8.27,1.39.27,1.98-.02,5.08-.07,10.16-.11,15.24,0,.62-.05,1.24-.09,1.85-.07,1.03-.71,1.58-1.67,1.66-1.48.13-2.97.22-4.45.22-11.03,0-22.06-.05-33.09-.05-4.09,0-8.18.1-12.27.08-4.91-.01-9.6,1.1-14.11,2.91-5.88,2.37-11.48,5.31-16.48,9.25-9.18,7.24-14.21,16.64-14.71,28.4-.57,13.52,4.71,24.55,14.17,33.86,5.48,5.4,12.02,9.09,19.14,11.83,3.35,1.29,6.66,2.68,10.23,3.28.56.09,1.07.46,1.62.71-.21.37-.28.65-.46.78-10.2,6.98-20.95,8.22-32.37,3.21-8.9-3.9-15.75-10.2-21.43-17.89-3.4-4.6-6.36-9.44-8.38-14.84-2.42-6.46-3.85-13.11-3.51-20,.52-10.75,2.57-21.14,8.42-30.45,1.78-2.84,3.71-5.56,6.19-7.85.34-.31.6-.7,1.19-1.4-.78.15-1.17.12-1.42.29-5.42,3.52-9.59,8.15-12.46,13.96-3.03,6.14-5.51,12.49-6.46,19.3-1.15,8.25-1.53,16.53.3,24.77,1.89,8.54,6.54,15.43,12.86,21.28,1.04.96,2.39,1.6,3.83,2.54-.63.41-.99.76-1.41.91-2.46.89-4.97,1.5-7.6,1.62-5.97.26-11.88-.07-17.76-1.16-9.03-1.68-16.31-6.35-22.36-13.08-6.08-6.77-6.85-8.25-9.16-17.09-.75-2.88-1.4-5.78-2.1-8.67-3.76-15.39-12.98-26.47-26.81-33.88-9.68-5.19-19.95-8.73-30.7-10.96-6.67-1.38-13.33-2.82-19.95-4.4-6.07-1.45-11.79-3.8-16.93-7.41-4.5-3.16-8.33-7.03-11.61-11.43-.95-1.27-1.63-2.76-2.34-4.2-.34-.68.25-1.64,1.01-1.64,1.34,0,2.72,0,4.02.29,1.56.36,3.05.99,4.56,1.56,5.11,1.92,10.35,3.42,15.72,4.36,3.53.61,7.09,1.11,10.7,1.09,7.93-.05,15.86.2,23.78-.51,2.22-.2,4.46-.1,6.69-.12,21.19-.23,42.38-.45,63.57-.68.5,0,.99-.01,1.49-.03,4.07-.14,3.23-.04,4.68-3.02,5.79-11.92,11.59-23.84,17.35-35.78,4.68-9.71,9.29-19.44,13.92-29.17,7.87-16.55,15.75-33.1,23.56-49.68,4.86-10.31,9.57-20.68,14.4-31,8.56-18.28,17.16-36.55,25.74-54.82,5.58-11.89,11.14-23.78,16.74-35.66.55-1.17.88-2.54,2.36-3.57.26,1.09.52,1.87.63,2.68.61,4.17,1.14,8.35,1.8,12.51,1.03,6.52,3.04,12.79,5.29,18.95,1.58,4.32,1.19,8.23-.69,12.21-3.29,6.94-6.61,13.87-9.88,20.82-12.98,27.57-25.88,55.18-38.93,82.72-8.38,17.69-16.99,35.27-25.43,52.93-5.13,10.73-10.14,21.51-15.23,32.26-1.1,2.33-2.34,4.6-3.83,7.53Zm-33.16,65.07c.23-2.58.56-5.16.68-7.74.25-5.23,1.39-10.29,2.73-15.31.99-3.72,2.44-7.27,4.37-10.62.36-.62.83-1.46.07-2-.37-.26-1.15-.04-1.71.09-.47.11-.88.45-1.33.65-3.28,1.39-6.54,2.12-9.81-.1-1.02-.69-2.2-1.15-3.21-1.84-1.43-.98-2.82-2.08-3.47-3.77-.47-1.22-1.38-1.68-2.56-1.81-2.34-.27-4.67-.59-7.01-.78-4.73-.39-9.31-1.29-13.55-3.55-.44-.24-.97-.83-1.56-.12,8.54,5.45,16.14,11.99,22.28,19.98,6.22,8.09,10.16,17.48,14.09,26.93Z" fill="#fff"/>
  <path d="m525.92,172.89c-.88.96-1.67,1.88-2.52,2.73-6.62,6.68-11.87,14.3-15.33,23.05-3.33,8.4-5,17.08-3.65,26.18.49,3.3.6,6.66,1.05,9.96.48,3.43,1.04,6.86,1.78,10.24,2.35,10.68,5.95,20.98,10.3,30.98,9.88,22.71,19.95,45.34,30.01,67.98,7.24,16.3,14.46,32.6,21.93,48.8,9.49,20.58,19.24,41.05,28.84,61.58,8.34,17.84,16.7,35.67,24.92,53.57,8.58,18.68,16.99,37.43,25.48,56.16,6.75,14.89,13.45,29.8,20.24,44.67,8.08,17.68,16.27,35.32,24.35,53.01,3.19,6.98,6.24,14.03,9.31,21.07.69,1.58,1.25,3.23,1.72,4.9.19.66.01,1.44-.13,2.15-.03.17-.72.44-.85.34-.65-.54-1.38-1.08-1.79-1.8-1.59-2.8-3.21-5.59-4.55-8.51-8.2-17.9-16.32-35.84-24.5-53.75-7.2-15.77-14.5-31.5-21.66-47.28-7.73-17.02-15.33-34.1-23.03-51.14-10.35-22.91-20.94-45.7-31.83-68.36-8.42-17.52-16.57-35.18-24.68-52.85-8.1-17.67-16-35.43-24-53.15-5.81-12.86-11.72-25.69-17.45-38.59-5.28-11.88-10.52-23.78-15.53-35.78-4.2-10.05-7.93-20.3-10.24-30.99-.94-4.35-1.46-8.77-1.97-13.2-.6-5.2-.27-10.39-.58-15.58-.18-2.95.15-5.94.21-8.91.07-3.71.26-7.44.1-11.14-.1-2.2-.77-4.38-1.18-6.57-.11-.61-.2-1.22-.28-1.84-.26-1.96-.03-2.28,2.01-2.76.48-.11.97-.2,1.46-.28,3.15-.53,5.85-1.97,8.19-4.11,1.46-1.34,2.83-2.78,4.31-4.1,2.31-2.05,4.65-4.08,7.05-6.03.59-.48,1.28-1.22,2.51-.66Z"/>
  <path d="m767.32,707.46c-2.62,2.04-5.33,3.98-7.85,6.14-2.44,2.09-4.79,4.3-6.97,6.66-2.26,2.44-4.4,5.03-6.35,7.73-1.87,2.6-3.45,5.42-5.1,8.18-1.72,2.87-3.11,5.89-4.25,9.05-1.08,2.99-1.72,6.13-2.98,9.05-1.15-.37-.96-1.21-1.04-1.9-.65-5.78-1.37-11.54-2.91-17.17-.65-2.38-1.46-4.72-2.21-7.07-.26-.82-.6-1.63-.81-2.46-.44-1.7-.02-2.55,1.59-3.24,2.05-.87,4.1-1.74,6.18-2.51,2.72-1.02,5.03-2.62,7.07-4.66.79-.79,1.68-1.49,2.34-2.38,1.79-2.4,4.25-3.26,7.1-3.36.37-.01.74-.08,1.11-.1,5.06-.28,10.05-1.01,15.08-1.97Z"/>
  <path d="m456.09,173.07c3.06,2.2,5.49,3.86,7.83,5.65,1.96,1.5,3.86,3.1,5.7,4.74,4.12,3.68,10.01,3.48,13.91.1,2.01-1.74,4.22-2.9,7.23-3.71-2.52,3.1-4.13,6.23-5.74,9.35-1.65,3.2-2.9,6.57-3.55,10.11-.87,4.73-1.55,9.49-2.32,14.29-.82-.14-.63-1.05-.84-1.63-2.38-6.49-4.82-12.96-7.78-19.23-3.22-6.82-7.56-12.73-13.22-17.68-.28-.24-.56-.49-.82-.75-.08-.08-.08-.23-.4-1.25Z"/>
  <path d="m470.59,301.92c-.8-.48-.74-1.29-.55-1.97,1.04-3.67,1.66-7.47,3.83-10.76,1.52-2.31,2.05-5.02,2.6-7.68.89-4.35,2.19-8.63,2.57-13.08.05-.55.36-1.09.7-2.07.68,4.81-.51,12.64-3.18,21.85-1.83,6.32-4.1,11.54-5.97,13.73Z"/>
  <path d="m248.88,753.63c-3.93-9.46-7.87-18.84-14.09-26.93-6.14-7.98-13.74-14.52-22.28-19.98.59-.71,1.12-.12,1.56.12,4.24,2.26,8.82,3.15,13.55,3.55,2.34.19,4.68.51,7.01.78,1.17.14,2.09.59,2.56,1.81.65,1.69,2.04,2.79,3.47,3.77,1.01.7,2.19,1.15,3.21,1.84,3.27,2.22,6.53,1.49,9.81.1.46-.19.86-.53,1.33-.65.56-.14,1.34-.36,1.71-.09.76.54.29,1.37-.07,2-1.93,3.35-3.37,6.9-4.37,10.62-1.34,5.02-2.48,10.09-2.73,15.31-.12,2.59-.45,5.16-.68,7.74Z"/>
<title>Title</title></svg>
